<svg xmlns="http://www.w3.org/2000/svg" xmlns:xlink="http://www.w3.org/1999/xlink" width="130" height="130"><defs><rect id="a" width="23.48" height="90.306" x=".107" y=".621" rx="3.6"/><rect id="c" width="9.031" height="1.806" x="-1.308" y="7.846" rx=".903"/><rect id="d" width="9.031" height="1.806" x="-1.308" y="13.264" rx=".903"/><rect id="e" width="9.031" height="1.806" x="-1.308" y="24.101" rx=".903"/><rect id="f" width="9.031" height="1.806" x="-1.308" y="29.519" rx=".903"/><rect id="g" width="12.643" height="1.806" x="-.916" y="18.683" rx=".903"/><path id="h" d="M.499 34.938h12.643v1.806H.499z"/><path id="i" d="M-1.308 40.356h9.031v1.806h-9.031z"/><path id="j" d="M-1.308 45.774h9.031v1.806h-9.031z"/><path id="k" d="M.499 51.193h12.643v1.806H.499z"/><rect id="l" width="9.031" height="1.806" x="-.247" y="60.969" rx=".903"/><rect id="m" width="12.643" height="1.806" x="-.209" y="66.034" rx=".903"/><rect id="n" width="1.806" height="56.167" x="6.081" y="20.928" rx=".903"/><rect id="o" width="1.806" height="56.167" x="11.5" y="20.928" rx=".903"/><rect id="p" width="1.806" height="56.167" x="16.918" y="20.928" rx=".903"/></defs><g fill="none" fill-rule="evenodd"><text fill="#2A2A2A" font-family="Lato-Bold, Lato" font-size="40" font-weight="bold" transform="translate(-346 -1061)"><tspan x="372.2" y="1223">459</tspan></text><g transform="rotate(-45 54.972 -11.338)"><mask id="b" fill="#fff"><use xlink:href="#a"/></mask><use fill="#EAE8E2" xlink:href="#a"/><circle cx="11.472" cy="78.814" r="3.612" fill="#FFF" mask="url(#b)"/><g mask="url(#b)"><use fill="#D8D8D8" xlink:href="#c"/><rect width="7.231" height="1" x="-.408" y="8.746" stroke="#9B9B9B" stroke-width="1.8" rx=".5"/></g><g mask="url(#b)"><use fill="#D8D8D8" xlink:href="#d"/><rect width="7.231" height="1" x="-.408" y="14.164" stroke="#9B9B9B" stroke-width="1.8" rx=".5"/></g><g mask="url(#b)"><use fill="#D8D8D8" xlink:href="#e"/><rect width="7.231" height="1" x="-.408" y="25.001" stroke="#9B9B9B" stroke-width="1.8" rx=".5"/></g><g mask="url(#b)"><use fill="#D8D8D8" xlink:href="#f"/><rect width="7.231" height="1" x="-.408" y="30.419" stroke="#9B9B9B" stroke-width="1.8" rx=".5"/></g><g mask="url(#b)"><use fill="#D8D8D8" xlink:href="#g"/><rect width="10.843" height="1" x="-.016" y="19.583" stroke="#9B9B9B" stroke-width="1.8" rx=".5"/></g><g mask="url(#b)"><use fill="#D8D8D8" xlink:href="#h"/><path stroke="#9B9B9B" stroke-width="1.8" d="M1.399 35.838h10.843v1H1.399z"/></g><g mask="url(#b)"><use fill="#D8D8D8" xlink:href="#i"/><path stroke="#9B9B9B" stroke-width="1.8" d="M-.408 41.256h7.231v1H-.408z"/></g><g mask="url(#b)"><use fill="#D8D8D8" xlink:href="#j"/><path stroke="#9B9B9B" stroke-width="1.8" d="M-.408 46.674h7.231v1H-.408z"/></g><g mask="url(#b)"><use fill="#D8D8D8" xlink:href="#k"/><path stroke="#9B9B9B" stroke-width="1.8" d="M1.399 52.093h10.843v1H1.399z"/></g><g mask="url(#b)"><use fill="#D8D8D8" xlink:href="#l"/><rect width="7.231" height="1" x=".653" y="61.869" stroke="#9B9B9B" stroke-width="1.8" rx=".5"/></g><g mask="url(#b)"><use fill="#D8D8D8" xlink:href="#m"/><rect width="10.843" height="1" x=".691" y="66.934" stroke="#9B9B9B" stroke-width="1.8" rx=".5"/></g><path fill="#1A1A1A" d="M-3.584 56.45h32.527l-.707 7.07-32.88-.353z" mask="url(#b)" opacity=".1"/></g><path fill="#F8D763" d="M85.57 22.504a3.6 3.6 0 0 1 5.085-.005l11.523 11.523a3.6 3.6 0 0 1-.006 5.085L50.591 90.689c-1.406 1.405-4.118 2.866-6.072 3.266L27.12 97.513l3.594-17.363c.403-1.943 1.874-4.664 3.274-6.064L85.57 22.504z"/><path fill="#DCB11C" d="M85.572 22.502a3.598 3.598 0 0 1 5.083-.003l11.523 11.523a3.594 3.594 0 0 1-.003 5.082l-5.29 5.29L80.284 27.79l5.29-5.29z"/><g transform="rotate(45 21.048 115.855)"><use fill="#B79416" xlink:href="#n"/><rect width="1" height="54.367" x="6.981" y="21.828" stroke="#DCB11C" stroke-width="1.8" rx=".5"/></g><g transform="rotate(45 21.048 115.855)"><use fill="#B79416" xlink:href="#o"/><rect width="1" height="54.367" x="12.4" y="21.828" stroke="#DCB11C" stroke-width="1.8" rx=".5"/></g><g transform="rotate(45 21.048 115.855)"><use fill="#B79416" xlink:href="#p"/><rect width="1" height="54.367" x="17.818" y="21.828" stroke="#DCB11C" stroke-width="1.8" rx=".5"/></g><path fill="#897157" d="M28.7 97.175l6.743-1.556-6.386-6.385-1.555 6.742a1 1 0 0 0 1.199 1.2z"/></g></svg>