<svg xmlns="http://www.w3.org/2000/svg" width="130" height="130"><g fill="none" fill-rule="evenodd" transform="translate(-359 -3386)"><path fill="#D9D5CE" d="M401 3420.5a1.5 1.5 0 0 1 1.508-1.5h26.984a1.5 1.5 0 1 1 0 3h-26.984a1.5 1.5 0 0 1-1.508-1.5zm0 27c0-.828.675-1.5 1.505-1.5h39.99a1.499 1.499 0 1 1 0 3h-39.99a1.499 1.499 0 0 1-1.505-1.5zm0 26c0-.828.667-1.5 1.49-1.5h24.02c.823 0 1.49.666 1.49 1.5 0 .828-.667 1.5-1.49 1.5h-24.02c-.823 0-1.49-.666-1.49-1.5zm0-45a1.5 1.5 0 0 1 1.5-1.5h65a1.5 1.5 0 0 1 0 3h-65c-.829 0-1.5-.666-1.5-1.5zm0 26a1.5 1.5 0 0 1 1.5-1.5h65a1.5 1.5 0 0 1 0 3h-65c-.829 0-1.5-.666-1.5-1.5zm0 26a1.5 1.5 0 0 1 1.5-1.5h65a1.5 1.5 0 0 1 0 3h-65c-.829 0-1.5-.666-1.5-1.5z"/><rect width="16" height="16" x="378" y="3417" fill="#ABD733" rx="3.25"/><path fill="#FFF" d="M390.603 3421.162c-.432-.275-1.038-.19-1.353.186l-4.894 5.857-1.628-1.801c-.332-.366-.94-.428-1.36-.14-.42.29-.49.822-.16 1.186l3.21 3.55 6.396-7.658c.315-.377.22-.905-.211-1.18"/><rect width="16" height="16" x="378" y="3443" fill="#ABD733" rx="3.25"/><rect width="16" height="16" x="378" y="3469" fill="#ABD733" rx="3.25"/><path fill="#FFF" d="M390.603 3447.162c-.432-.275-1.038-.19-1.353.186l-4.894 5.857-1.628-1.801c-.332-.366-.94-.428-1.36-.14-.42.29-.49.822-.16 1.186l3.21 3.55 6.396-7.658c.315-.377.22-.905-.211-1.18M390.603 3473.162c-.432-.275-1.038-.19-1.353.186l-4.894 5.857-1.628-1.801c-.332-.366-.94-.428-1.36-.14-.42.29-.49.822-.16 1.186l3.21 3.55 6.396-7.658c.315-.377.22-.905-.211-1.18"/></g></svg>