<svg xmlns="http://www.w3.org/2000/svg" xmlns:xlink="http://www.w3.org/1999/xlink" width="130" height="130"><defs><path id="a" d="M12 6.676A6.675 6.675 0 0 1 18.678 0h84.644A6.675 6.675 0 0 1 110 6.676V66H12V6.676z"/></defs><g fill="none" fill-rule="evenodd"><text fill="#2A2A2A" font-family="Lato-Bold, Lato" font-size="40" font-weight="bold" transform="translate(-990 -1061)"><tspan x="1030.3" y="1223">40</tspan></text><g transform="translate(4 27)"><use fill="#FFF" xlink:href="#a"/><path stroke="#50432C" stroke-width="3.24" d="M13.62 64.38h94.76V6.676a5.055 5.055 0 0 0-5.058-5.056H18.678a5.055 5.055 0 0 0-5.058 5.056V64.38z"/><path fill="#F8D763" d="M7 74h108a7 7 0 0 0 7-7v-1H0v1a7 7 0 0 0 7 7z"/><g transform="translate(19 7)"><rect width="84" height="52" fill="#F8D763" rx="1"/><path fill="#EAE8E2" d="M0 34h84v17a1 1 0 0 1-1 1H1a1 1 0 0 1-1-1V34z"/><rect width="19" height="31" x="12" y="14" fill="#FFF" rx="2"/><rect width="5" height="3" x="78" y="1" fill="#FFF" rx="1.5"/><rect width="11" height="3" x="1" y="1" fill="#FFF" rx="1.5"/><rect width="30" height="4" x="34" y="19" fill="#FFF" rx="2"/><rect width="19" height="4" x="34" y="25" fill="#FFF" rx="2"/><rect width="35" height="3" x="34" y="37" fill="#D1D1D1" rx="1.5"/><rect width="35" height="3" x="34" y="42" fill="#D1D1D1" rx="1.5"/><rect width="6" height="3" x="15" y="1" fill="#FFF" rx="1.5"/></g><rect width="13" height="3" x="34" y="30" fill="#D8D8D8" rx="1"/><rect width="9" height="1" x="36" y="46" fill="#D8D8D8" rx=".5"/><rect width="5" height="1" x="38" y="48" fill="#D8D8D8" rx=".5"/><rect width="5" height="1" x="38" y="24" fill="#D8D8D8" rx=".5"/></g></g></svg>